<svg width="1005" height="361" viewBox="0 0 1005 361" fill="none" xmlns="http://www.w3.org/2000/svg">
<path d="M277.276 190.098V221.598H269.23V169.234H277.003V177.416H277.685C278.912 174.757 280.776 172.62 283.276 171.007C285.776 169.37 289.003 168.552 292.958 168.552C296.503 168.552 299.605 169.279 302.264 170.734C304.923 172.166 306.992 174.348 308.469 177.279C309.946 180.189 310.685 183.87 310.685 188.325V221.598H302.639V188.87C302.639 184.757 301.571 181.552 299.435 179.257C297.298 176.939 294.367 175.779 290.639 175.779C288.071 175.779 285.776 176.336 283.753 177.45C281.753 178.564 280.173 180.189 279.014 182.325C277.855 184.461 277.276 187.052 277.276 190.098ZM345.159 222.689C340.796 222.689 336.943 221.586 333.602 219.382C330.262 217.154 327.648 214.018 325.762 209.973C323.875 205.904 322.932 201.098 322.932 195.552C322.932 190.052 323.875 185.279 325.762 181.234C327.648 177.189 330.273 174.064 333.637 171.859C337 169.654 340.887 168.552 345.296 168.552C348.705 168.552 351.398 169.12 353.375 170.257C355.375 171.37 356.898 172.643 357.943 174.075C359.012 175.484 359.841 176.643 360.432 177.552H361.114V151.779H369.159V221.598H361.387V213.552H360.432C359.841 214.507 359 215.711 357.909 217.166C356.818 218.598 355.262 219.882 353.239 221.018C351.216 222.132 348.523 222.689 345.159 222.689ZM346.25 215.461C349.477 215.461 352.205 214.62 354.432 212.939C356.659 211.234 358.352 208.882 359.512 205.882C360.671 202.859 361.25 199.37 361.25 195.416C361.25 191.507 360.682 188.086 359.546 185.154C358.409 182.2 356.727 179.904 354.5 178.268C352.273 176.609 349.523 175.779 346.25 175.779C342.841 175.779 340 176.654 337.727 178.404C335.477 180.132 333.784 182.484 332.648 185.461C331.534 188.416 330.977 191.734 330.977 195.416C330.977 199.143 331.546 202.529 332.682 205.575C333.841 208.598 335.546 211.007 337.796 212.802C340.068 214.575 342.887 215.461 346.25 215.461ZM400.421 222.825C397.102 222.825 394.091 222.2 391.387 220.95C388.682 219.677 386.534 217.848 384.943 215.461C383.352 213.052 382.557 210.143 382.557 206.734C382.557 203.734 383.148 201.302 384.33 199.439C385.512 197.552 387.091 196.075 389.068 195.007C391.046 193.939 393.227 193.143 395.614 192.62C398.023 192.075 400.443 191.643 402.875 191.325C406.057 190.916 408.637 190.609 410.614 190.404C412.614 190.177 414.068 189.802 414.977 189.279C415.909 188.757 416.375 187.848 416.375 186.552V186.279C416.375 182.916 415.455 180.302 413.614 178.439C411.796 176.575 409.034 175.643 405.33 175.643C401.489 175.643 398.477 176.484 396.296 178.166C394.114 179.848 392.58 181.643 391.693 183.552L384.057 180.825C385.421 177.643 387.239 175.166 389.512 173.393C391.807 171.598 394.307 170.348 397.012 169.643C399.739 168.916 402.421 168.552 405.057 168.552C406.739 168.552 408.671 168.757 410.852 169.166C413.057 169.552 415.182 170.359 417.227 171.586C419.296 172.814 421.012 174.666 422.375 177.143C423.739 179.62 424.421 182.939 424.421 187.098V221.598H416.375V214.507H415.966C415.421 215.643 414.512 216.859 413.239 218.154C411.966 219.45 410.273 220.552 408.159 221.461C406.046 222.37 403.466 222.825 400.421 222.825ZM401.648 215.598C404.83 215.598 407.512 214.973 409.693 213.723C411.898 212.473 413.557 210.859 414.671 208.882C415.807 206.904 416.375 204.825 416.375 202.643V195.279C416.034 195.689 415.284 196.064 414.125 196.404C412.989 196.723 411.671 197.007 410.171 197.257C408.693 197.484 407.25 197.689 405.841 197.87C404.455 198.029 403.33 198.166 402.466 198.279C400.375 198.552 398.421 198.995 396.602 199.609C394.807 200.2 393.352 201.098 392.239 202.302C391.148 203.484 390.602 205.098 390.602 207.143C390.602 209.939 391.637 212.052 393.705 213.484C395.796 214.893 398.443 215.598 401.648 215.598ZM476.196 180.961L468.969 183.007C468.514 181.802 467.844 180.632 466.958 179.495C466.094 178.336 464.912 177.382 463.412 176.632C461.912 175.882 459.992 175.507 457.651 175.507C454.446 175.507 451.776 176.245 449.639 177.723C447.526 179.177 446.469 181.029 446.469 183.279C446.469 185.279 447.196 186.859 448.651 188.018C450.105 189.177 452.378 190.143 455.469 190.916L463.242 192.825C467.923 193.961 471.412 195.7 473.708 198.041C476.003 200.359 477.151 203.348 477.151 207.007C477.151 210.007 476.287 212.689 474.56 215.052C472.855 217.416 470.469 219.279 467.401 220.643C464.333 222.007 460.764 222.689 456.696 222.689C451.355 222.689 446.935 221.529 443.435 219.211C439.935 216.893 437.719 213.507 436.787 209.052L444.423 207.143C445.151 209.961 446.526 212.075 448.548 213.484C450.594 214.893 453.264 215.598 456.56 215.598C460.31 215.598 463.287 214.802 465.492 213.211C467.719 211.598 468.833 209.666 468.833 207.416C468.833 205.598 468.196 204.075 466.923 202.848C465.651 201.598 463.696 200.666 461.06 200.052L452.333 198.007C447.537 196.87 444.014 195.109 441.764 192.723C439.537 190.314 438.423 187.302 438.423 183.689C438.423 180.734 439.253 178.12 440.912 175.848C442.594 173.575 444.878 171.791 447.764 170.495C450.673 169.2 453.969 168.552 457.651 168.552C462.833 168.552 466.901 169.689 469.855 171.961C472.833 174.234 474.946 177.234 476.196 180.961ZM538.898 221.598H517.352V151.779H539.852C546.625 151.779 552.421 153.177 557.239 155.973C562.057 158.745 565.75 162.734 568.318 167.939C570.887 173.12 572.171 179.325 572.171 186.552C572.171 193.825 570.875 200.086 568.284 205.336C565.693 210.564 561.921 214.586 556.966 217.404C552.012 220.2 545.989 221.598 538.898 221.598ZM525.807 214.098H538.352C544.125 214.098 548.909 212.984 552.705 210.757C556.5 208.529 559.33 205.359 561.193 201.245C563.057 197.132 563.989 192.234 563.989 186.552C563.989 180.916 563.068 176.064 561.227 171.995C559.387 167.904 556.637 164.768 552.977 162.586C549.318 160.382 544.762 159.279 539.307 159.279H525.807V214.098ZM607.216 222.689C602.171 222.689 597.818 221.575 594.159 219.348C590.523 217.098 587.716 213.961 585.739 209.939C583.784 205.893 582.807 201.189 582.807 195.825C582.807 190.461 583.784 185.734 585.739 181.643C587.716 177.529 590.466 174.325 593.989 172.029C597.534 169.711 601.671 168.552 606.398 168.552C609.125 168.552 611.818 169.007 614.477 169.916C617.137 170.825 619.557 172.302 621.739 174.348C623.921 176.37 625.659 179.052 626.955 182.393C628.25 185.734 628.898 189.848 628.898 194.734V198.143H588.534V191.189H620.716C620.716 188.234 620.125 185.598 618.943 183.279C617.784 180.961 616.125 179.132 613.966 177.791C611.83 176.45 609.307 175.779 606.398 175.779C603.193 175.779 600.421 176.575 598.08 178.166C595.762 179.734 593.977 181.779 592.727 184.302C591.477 186.825 590.852 189.529 590.852 192.416V197.052C590.852 201.007 591.534 204.359 592.898 207.109C594.284 209.836 596.205 211.916 598.659 213.348C601.114 214.757 603.966 215.461 607.216 215.461C609.33 215.461 611.239 215.166 612.943 214.575C614.671 213.961 616.159 213.052 617.409 211.848C618.659 210.62 619.625 209.098 620.307 207.279L628.08 209.461C627.262 212.098 625.887 214.416 623.955 216.416C622.023 218.393 619.637 219.939 616.796 221.052C613.955 222.143 610.762 222.689 607.216 222.689ZM669.227 221.598V151.779H711.091V159.279H677.682V182.87H707.955V190.37H677.682V221.598H669.227ZM741.909 222.689C737.182 222.689 733.034 221.564 729.466 219.314C725.921 217.064 723.148 213.916 721.148 209.87C719.171 205.825 718.182 201.098 718.182 195.689C718.182 190.234 719.171 185.473 721.148 181.404C723.148 177.336 725.921 174.177 729.466 171.927C733.034 169.677 737.182 168.552 741.909 168.552C746.637 168.552 750.773 169.677 754.318 171.927C757.887 174.177 760.659 177.336 762.637 181.404C764.637 185.473 765.637 190.234 765.637 195.689C765.637 201.098 764.637 205.825 762.637 209.87C760.659 213.916 757.887 217.064 754.318 219.314C750.773 221.564 746.637 222.689 741.909 222.689ZM741.909 215.461C745.5 215.461 748.455 214.541 750.773 212.7C753.091 210.859 754.807 208.439 755.921 205.439C757.034 202.439 757.591 199.189 757.591 195.689C757.591 192.189 757.034 188.927 755.921 185.904C754.807 182.882 753.091 180.439 750.773 178.575C748.455 176.711 745.5 175.779 741.909 175.779C738.318 175.779 735.364 176.711 733.046 178.575C730.727 180.439 729.012 182.882 727.898 185.904C726.784 188.927 726.227 192.189 726.227 195.689C726.227 199.189 726.784 202.439 727.898 205.439C729.012 208.439 730.727 210.859 733.046 212.7C735.364 214.541 738.318 215.461 741.909 215.461ZM810.918 200.189V169.234H818.963V221.598H810.918V212.734H810.372C809.145 215.393 807.236 217.654 804.645 219.518C802.054 221.359 798.781 222.279 794.827 222.279C791.554 222.279 788.645 221.564 786.1 220.132C783.554 218.677 781.554 216.495 780.1 213.586C778.645 210.654 777.918 206.961 777.918 202.507V169.234H785.963V201.961C785.963 205.779 787.031 208.825 789.168 211.098C791.327 213.37 794.077 214.507 797.418 214.507C799.418 214.507 801.452 213.995 803.52 212.973C805.611 211.95 807.361 210.382 808.77 208.268C810.202 206.154 810.918 203.461 810.918 200.189ZM833.699 221.598V169.234H841.472V177.143H842.017C842.972 174.552 844.699 172.45 847.199 170.836C849.699 169.223 852.517 168.416 855.654 168.416C856.244 168.416 856.983 168.427 857.869 168.45C858.756 168.473 859.426 168.507 859.881 168.552V176.734C859.608 176.666 858.983 176.564 858.006 176.427C857.051 176.268 856.04 176.189 854.972 176.189C852.426 176.189 850.154 176.723 848.154 177.791C846.176 178.836 844.608 180.291 843.449 182.154C842.313 183.995 841.744 186.098 841.744 188.461V221.598H833.699ZM869.418 221.598V169.234H877.463V221.598H869.418ZM873.509 160.507C871.94 160.507 870.588 159.973 869.452 158.904C868.338 157.836 867.781 156.552 867.781 155.052C867.781 153.552 868.338 152.268 869.452 151.2C870.588 150.132 871.94 149.598 873.509 149.598C875.077 149.598 876.418 150.132 877.531 151.2C878.668 152.268 879.236 153.552 879.236 155.052C879.236 156.552 878.668 157.836 877.531 158.904C876.418 159.973 875.077 160.507 873.509 160.507ZM914.154 222.689C909.108 222.689 904.756 221.575 901.097 219.348C897.46 217.098 894.654 213.961 892.676 209.939C890.722 205.893 889.744 201.189 889.744 195.825C889.744 190.461 890.722 185.734 892.676 181.643C894.654 177.529 897.404 174.325 900.926 172.029C904.472 169.711 908.608 168.552 913.335 168.552C916.063 168.552 918.756 169.007 921.415 169.916C924.074 170.825 926.494 172.302 928.676 174.348C930.858 176.37 932.597 179.052 933.892 182.393C935.188 185.734 935.835 189.848 935.835 194.734V198.143H895.472V191.189H927.654C927.654 188.234 927.063 185.598 925.881 183.279C924.722 180.961 923.063 179.132 920.904 177.791C918.767 176.45 916.244 175.779 913.335 175.779C910.131 175.779 907.358 176.575 905.017 178.166C902.699 179.734 900.915 181.779 899.665 184.302C898.415 186.825 897.79 189.529 897.79 192.416V197.052C897.79 201.007 898.472 204.359 899.835 207.109C901.222 209.836 903.142 211.916 905.597 213.348C908.051 214.757 910.904 215.461 914.154 215.461C916.267 215.461 918.176 215.166 919.881 214.575C921.608 213.961 923.097 213.052 924.347 211.848C925.597 210.62 926.563 209.098 927.244 207.279L935.017 209.461C934.199 212.098 932.824 214.416 930.892 216.416C928.96 218.393 926.574 219.939 923.733 221.052C920.892 222.143 917.699 222.689 914.154 222.689ZM948.074 221.598V169.234H955.847V177.143H956.392C957.347 174.552 959.074 172.45 961.574 170.836C964.074 169.223 966.892 168.416 970.029 168.416C970.619 168.416 971.358 168.427 972.244 168.45C973.131 168.473 973.801 168.507 974.256 168.552V176.734C973.983 176.666 973.358 176.564 972.381 176.427C971.426 176.268 970.415 176.189 969.347 176.189C966.801 176.189 964.529 176.723 962.529 177.791C960.551 178.836 958.983 180.291 957.824 182.154C956.688 183.995 956.119 186.098 956.119 188.461V221.598H948.074Z" fill="black"/>
<circle cx="168.683" cy="283.643" r="76.8571" fill="#757575" stroke="black"/>
<circle cx="77.5738" cy="159.871" r="76.8571" fill="#757575" stroke="black"/>
<circle cx="175.559" cy="61.8857" r="61.3857" fill="#757575" stroke="black"/>
<circle cx="270.967" cy="81.6547" r="35.6" fill="#757575" stroke="black"/>
<circle cx="253.776" cy="132.367" r="17.55" fill="#757575" stroke="black"/>
<path d="M169.543 284.502L78.1968 162.991C77.5942 162.189 77.6784 161.065 78.3936 160.363L175.659 64.7816C176.134 64.3147 176.811 64.115 177.463 64.2491L268.312 82.9166C269.492 83.1592 270.192 84.3829 269.802 85.5231L254.133 131.322C253.911 131.972 253.371 132.463 252.702 132.621L237.445 136.235" stroke="black" stroke-width="3" stroke-linecap="round"/>
<path d="M249.636 174.483C249.636 199.977 231.962 219.336 211.659 219.336C191.357 219.336 173.683 199.977 173.683 174.483C173.683 148.99 191.357 129.631 211.659 129.631C231.962 129.631 249.636 148.99 249.636 174.483Z" stroke="#00C914" stroke-width="10"/>
</svg>
